HIERARCHY
ROOT hip
{
	OFFSET 0.000000 0.000000 0.000000 
	CHANNELS 6 Xposition Yposition Zposition Xrotation Zrotation Yrotation
	JOINT abdomen
	{
		OFFSET 0.000000 3.402643 0.000000 
		CHANNELS 3 Xrotation Zrotation Yrotation
		JOINT chest
		{
			OFFSET 0.000000 8.438565 -0.680529 
			CHANNELS 3 Xrotation Zrotation Yrotation
			JOINT neck
			{
				OFFSET 0.000000 10.207942 -0.272212 
				CHANNELS 3 Xrotation Zrotation Yrotation
				JOINT head
				{
					OFFSET 0.000000 3.130431 0.000000 
					CHANNELS 3 Xrotation Zrotation Yrotation
					End Site
					{
						OFFSET 0.000000 3.130435 0.000000 
					}
				}
			}
			JOINT lCollar
			{
				OFFSET 3.470700 6.669187 -0.816635 
				CHANNELS 3 Yrotation Zrotation Xrotation
				JOINT lShldr
				{
					OFFSET 3.198488 0.000000 0.000000 
					CHANNELS 3 Zrotation Yrotation Xrotation
					JOINT lForeArm
					{
						OFFSET 10.139888 0.000000 0.000000 
						CHANNELS 3 Yrotation Zrotation Xrotation
						JOINT lHand
						{
							OFFSET 8.370511 0.000000 0.000000 
							CHANNELS 3 Zrotation Yrotation Xrotation
							End Site
							{
								OFFSET 4.083176 0.000000 0.000000 
							}
						}
					}
				}
			}
			JOINT rCollar
			{
				OFFSET -3.470700 6.669187 -0.816635 
				CHANNELS 3 Yrotation Zrotation Xrotation
				JOINT rShldr
				{
					OFFSET -3.198488 0.000000 0.000000 
					CHANNELS 3 Zrotation Yrotation Xrotation
					JOINT rForeArm
					{
						OFFSET -10.139888 0.000000 0.000000 
						CHANNELS 3 Yrotation Zrotation Xrotation
						JOINT rHand
						{
							OFFSET -8.370511 0.000000 0.000000 
							CHANNELS 3 Zrotation Yrotation Xrotation
							End Site
							{
								OFFSET -4.083176 0.000000 0.000000 
							}
						}
					}
				}
			}
		}
	}
	JOINT lThigh
	{
		OFFSET 5.308129 -1.633274 1.361059 
		CHANNELS 3 Xrotation Zrotation Yrotation
		JOINT lShin
		{
			OFFSET -2.041588 -20.007561 0.000000 
			CHANNELS 3 Xrotation Zrotation Yrotation
			JOINT lFoot
			{
				OFFSET 0.000000 -19.190928 -1.224953 
				CHANNELS 3 Xrotation Yrotation Zrotation
				End Site
				{
					OFFSET 0.000000 -2.449906 4.627600 
				}
			}
		}
	}
	JOINT rThigh
	{
		OFFSET -5.308129 -1.633274 1.361059 
		CHANNELS 3 Xrotation Zrotation Yrotation
		JOINT rShin
		{
			OFFSET 2.041588 -20.007561 0.000000 
			CHANNELS 3 Xrotation Zrotation Yrotation
			JOINT rFoot
			{
				OFFSET 0.000000 -19.190928 -1.224953 
				CHANNELS 3 Xrotation Yrotation Zrotation
				End Site
				{
					OFFSET 0.000000 -2.449906 4.627600 
				}
			}
		}
	}
}
MOTION
Frames: 16
Frame Time: 0.016667
0.049277 43.839127 -2.189473 13.084800 2.064170 -5.213660 -24.813200 0.304855 2.616600 23.887199 0.994412 1.200610 15.204300 -7.048260 7.880220 9.434300 2.438700 4.236940 2.000000 -2.000000 0.000000 -91.813004 0.028030 167.080002 15.967000 -0.346289 0.037670 0.075764 0.085218 -100.623001 -2.000000 2.000000 0.000000 -84.902298 -177.194000 -2.741550 -18.574400 0.344442 0.043552 -0.054776 -0.011011 -132.985992 -16.966238 -2.340647 -12.195456 17.400652 2.067304 1.660484 -11.136497 13.069587 4.325962 -14.912459 1.539346 16.182161 13.522279 -1.903672 -1.421513 3.754167 -29.932106 -0.795965 
0.024928 43.860214 -2.240014 13.338800 2.052520 -5.157950 -24.667299 0.263851 2.590770 24.072800 1.033210 1.186700 15.232400 -7.210530 7.566590 9.511730 2.311850 4.120680 2.000000 -2.000000 0.000000 -92.006302 -0.868240 163.791000 15.097800 -0.346845 0.035671 0.081779 0.102672 -97.136703 -2.000000 2.000000 0.000000 -84.648499 -177.643997 -2.974370 -18.369301 0.344598 0.043088 -0.055082 -0.014800 -131.628998 -17.266312 -2.303845 -12.383316 17.479713 2.066838 1.668520 -11.297319 13.119522 4.382597 -15.137965 1.530811 15.869262 13.186220 -1.842129 -1.432749 5.384822 -29.404749 -0.064007 
0.004429 43.857380 -2.289038 13.414700 1.766880 -5.184030 -24.531300 0.293910 2.532440 24.072701 0.935736 1.170930 15.165300 -6.821340 7.372310 9.483350 2.467570 3.987910 2.000000 -2.000000 0.000000 -92.121803 -1.537640 161.449005 14.521600 -0.347196 0.034342 0.085514 0.106998 -95.095703 -2.000000 2.000000 0.000000 -84.550797 -178.033997 -2.612120 -17.988501 0.344881 0.042224 -0.055369 -0.017630 -130.613007 -17.487978 -1.996894 -12.411382 17.722132 2.098932 1.677743 -11.661476 13.038892 4.447013 -15.070249 1.766776 15.652033 12.750827 -1.774849 -1.406784 5.279623 -29.308498 -0.203689 
-0.043025 43.876022 -2.367900 13.872100 1.507470 -5.018260 -24.475300 0.297625 2.348100 24.131399 0.974663 1.086430 14.778900 -6.325800 7.082880 9.328110 2.653270 3.803040 2.000000 -2.000000 0.000000 -92.304802 -2.140620 158.197998 14.013800 -0.347495 0.033168 0.090581 0.112405 -92.449203 -2.000000 2.000000 0.000000 -84.462898 -178.423004 -2.113140 -17.929899 0.344924 0.042091 -0.055766 -0.020915 -129.432007 -18.182812 -1.513369 -11.587649 17.754995 2.075917 1.693647 -11.715245 11.903181 4.192896 -15.439857 2.039554 15.662206 12.326344 -1.705688 -1.400725 3.108019 -29.901844 -1.382967 
-0.074442 43.865742 -2.426394 13.772400 1.157160 -5.048280 -24.260900 0.268694 2.326830 24.062799 0.750546 1.071500 14.523300 -6.063920 6.823480 9.240630 2.731630 3.649830 2.000000 -2.000000 0.000000 -92.301903 -2.870120 155.074005 13.398600 -0.347842 0.031742 0.095753 0.117441 -89.871101 -2.000000 2.000000 0.000000 -84.287102 -178.889999 -1.184480 -17.890800 0.344953 0.042002 -0.056260 -0.024380 -128.182007 -18.205418 -1.292618 -12.571679 17.966393 2.114800 1.684704 -11.481060 12.837670 4.341690 -15.328056 2.408191 15.730765 12.268089 -1.699417 -1.401521 3.536845 -29.798002 -1.166724 
-0.127728 43.868301 -2.481530 13.908300 0.966896 -4.887400 -24.222900 0.267843 2.241300 23.896799 0.750676 1.030260 14.744600 -6.005830 6.682760 9.358010 2.740600 3.587970 2.000000 -2.000000 0.000000 -92.473503 -3.532790 151.139999 12.666200 -0.348236 0.030039 0.102801 0.123628 -86.521500 -2.000000 2.000000 0.000000 -84.306602 -179.074005 -0.578537 -17.734600 0.345067 0.041647 -0.056496 -0.025866 -127.643997 -18.505463 -0.995169 -12.391984 18.083910 2.121808 1.693050 -11.646339 12.367817 4.267334 -15.314385 2.588277 15.298353 11.730085 -1.601493 -1.415705 4.896762 -29.534472 -0.630116 
-0.187233 43.877941 -2.528060 13.985700 0.786522 -4.989540 -24.047600 0.274726 2.204410 23.867500 0.721450 1.018420 14.379200 -6.257890 6.629860 9.259070 2.556460 3.595640 2.000000 -2.000000 0.000000 -92.490303 -3.967240 148.835999 12.539200 -0.348303 0.029744 0.106793 0.126825 -84.695297 -2.000000 2.000000 0.000000 -84.423897 -179.332993 1.355840 -18.037300 0.344845 0.042335 -0.055992 -0.022567 -128.835999 -18.600626 -0.814878 -13.026051 18.365614 2.150657 1.691532 -11.745590 12.888706 4.402620 -15.308551 2.776645 15.021060 11.496101 -1.574836 -1.389940 3.634581 -29.276869 -1.271259 
-0.240646 43.889637 -2.597193 14.239600 0.757250 -4.944440 -23.942200 0.285409 2.038630 23.789400 0.867758 0.967123 13.343600 -5.556810 6.421680 8.801640 2.890080 3.397770 2.000000 -2.000000 0.000000 -92.625099 -4.409950 147.225006 12.334100 -0.348408 0.029266 0.108531 0.128153 -83.914101 -2.000000 2.000000 0.000000 -84.472702 -179.645004 1.551900 -18.203300 0.344722 0.042711 -0.056098 -0.023298 -128.572006 -18.957197 -0.690509 -13.067595 18.388180 2.135112 1.718039 -11.611815 12.885447 4.395455 -15.600074 2.823316 14.607172 11.160282 -1.508457 -1.392783 6.075759 -28.545029 -0.178803 
-0.253375 43.905956 -2.666327 15.434100 1.355560 -5.768240 -24.142700 0.208573 2.416580 23.906601 0.809162 1.102180 12.588600 -5.250590 6.402730 9.056450 2.976000 3.379220 2.000000 -2.000000 0.000000 -92.515404 -4.803970 145.516998 12.021600 -0.348565 0.028537 0.110884 0.129892 -82.869102 -2.000000 2.000000 0.000000 -84.580399 -179.785995 3.720210 -18.486500 0.344509 0.043353 -0.055443 -0.018282 -130.378998 -19.794149 -0.944668 -13.432933 17.527147 2.011798 1.708843 -10.767484 13.892127 4.619689 -16.983473 2.332566 14.616844 10.928886 -1.404042 -1.419968 4.962170 -27.556795 -0.845665 
-0.307730 43.917912 -2.735415 15.953600 1.596250 -6.008500 -24.025400 0.145590 2.443190 24.043400 0.848037 1.106500 12.391300 -5.782160 6.352770 9.074360 2.722960 3.396920 2.000000 -2.000000 0.000000 -92.454697 -5.393120 143.867004 11.816500 -0.348666 0.028058 0.114055 0.132134 -81.482399 -2.000000 2.000000 0.000000 -84.541397 179.893005 4.365510 -18.730700 0.344323 0.043905 -0.055357 -0.017521 -130.651993 -20.195919 -0.982161 -13.567796 17.160709 1.949837 1.708567 -10.200121 14.145484 4.620177 -17.679613 2.235002 14.226593 10.810740 -1.338152 -1.457068 5.815738 -26.885923 -0.513274 
-0.364400 43.930248 -2.796942 16.334299 1.555690 -6.321380 -24.015100 0.168164 2.475680 23.867500 0.809194 1.130930 11.858300 -6.176180 6.345840 8.848120 2.490810 3.415330 2.000000 -2.000000 0.000000 -92.537498 -5.780490 140.410004 11.416100 -0.348859 0.027122 0.121183 0.136771 -78.445297 -2.000000 2.000000 0.000000 -84.649200 179.770004 6.113850 -19.043200 0.344082 0.044610 -0.054921 -0.012948 -132.292999 -20.553465 -0.756113 -13.652597 17.073824 1.936058 1.708618 -10.052285 14.521841 4.707959 -18.143549 2.384932 13.853612 10.648824 -1.298129 -1.468044 4.335311 -26.552118 -1.255348 
-0.439209 43.943356 -2.859874 16.706800 1.702360 -6.530090 -23.935699 0.123769 2.579630 23.799200 0.809249 1.169030 11.838400 -6.185230 6.354700 8.926380 2.500090 3.419560 2.000000 -2.000000 0.000000 -92.486702 -6.222360 139.082993 11.211100 -0.348955 0.026642 0.123785 0.138333 -77.361298 -2.000000 2.000000 0.000000 -84.375900 178.970993 6.486850 -18.711100 0.344338 0.043861 -0.054876 -0.012375 -132.498001 -20.945530 -0.658973 -13.203013 16.938946 1.912040 1.708354 -9.834712 14.316517 4.673201 -18.430363 2.294817 13.882920 10.163759 -1.169891 -1.501291 5.020367 -26.214993 -1.126993 
-0.508276 43.944252 -2.956540 17.206699 1.865770 -6.551220 -23.906799 0.032977 2.587450 23.642900 0.780117 1.155470 11.475800 -5.708230 6.262240 8.761630 2.744340 3.334850 2.000000 -2.000000 0.000000 -92.369301 -6.584100 138.858994 10.966900 -0.349067 0.026071 0.123126 0.137944 -77.634804 -2.000000 2.000000 0.000000 -84.415100 179.147995 7.043070 -19.297100 0.343883 0.045183 -0.054839 -0.011884 -132.673996 -21.408180 -0.683566 -13.831129 16.621681 1.849222 1.707409 -9.247015 14.918156 4.735041 -19.091320 2.284003 13.653177 10.136065 -1.150474 -1.490903 7.549510 -25.019047 -0.043785 
-0.591653 43.943356 -3.004184 17.538799 1.853080 -6.650790 -23.661100 0.038887 2.687230 23.818600 0.750735 1.205020 10.698900 -5.605160 6.139490 8.409790 2.765890 3.251150 2.000000 -2.000000 0.000000 -92.424400 -7.261800 136.662994 10.713000 -0.349181 0.025476 0.128043 0.140749 -75.613297 -2.000000 2.000000 0.000000 -84.385902 178.641006 7.659520 -19.463100 0.343752 0.045556 -0.054780 -0.011066 -132.966995 -21.751005 -0.511729 -14.301926 16.397896 1.830167 1.710066 -8.857099 15.325039 4.762645 -19.399000 2.403888 13.627599 9.925775 -1.101921 -1.503413 6.052895 -25.520260 -0.738349 
-0.690856 43.926514 -3.053331 18.190100 1.503010 -6.459230 -23.469601 0.032630 2.420790 24.140900 0.682257 1.087770 10.037100 -6.029580 6.154750 8.144600 2.543360 3.280840 2.000000 -2.000000 0.000000 -92.528503 -7.909880 134.582001 10.566500 -0.349245 0.025132 0.131860 0.142772 -74.070297 -2.000000 2.000000 0.000000 95.643097 1.737970 -171.656006 -19.677999 0.343580 0.046039 -0.054761 -0.010793 -133.063995 -22.527161 -0.138203 -16.343134 16.093817 1.812629 1.675823 -7.804420 16.715454 4.791305 -19.741737 2.779250 13.849664 9.177352 -0.939143 -1.514753 5.794319 -26.140474 -1.077075 
-0.769840 43.941681 -3.100042 18.601500 1.619760 -6.427530 -23.371700 0.012033 2.449410 24.131201 0.750490 1.091930 9.864550 -5.619700 6.206290 8.106760 2.777340 3.276300 2.000000 -2.000000 0.000000 -92.643303 -8.263800 133.156998 10.400500 -0.349317 0.024743 0.134771 0.144228 -72.908203 -2.000000 2.000000 0.000000 95.574501 1.980130 -170.815994 -19.824400 0.343462 0.046368 -0.054659 -0.009156 -133.649994 -22.767849 -0.162513 -16.991381 15.804919 1.760057 1.675959 -7.127420 17.479731 4.793921 -20.082218 2.713218 13.841549 8.823613 -0.853849 -1.539923 6.625154 -25.939442 -0.828882 
